<?xml version="1.0" encoding="UTF-8"?>
<svg id="katman_2" data-name="katman 2" xmlns="http://www.w3.org/2000/svg" viewBox="0 0 966.38 370.91">
  <defs>
    <style>
      .cls-1 {
        fill: #3a3a3a;
      }

      .cls-2 {
        fill: #fee217;
      }

      .cls-3 {
        fill: #fbe017;
      }
    </style>
  </defs>
  <g id="katman_1" data-name="katman 1">
    <g>
      <polygon class="cls-2" points="0 348.02 339.64 7.82 108.07 160.04 108.07 0 0 0 0 348.02"/>
      <polygon class="cls-1" points=".36 370.91 108.63 370.91 187.04 260.36 261.53 370.59 389.68 370.59 235.69 190.53 364.16 6.36 .36 370.91"/>
    </g>
    <g>
      <g>
        <path class="cls-1" d="M496.9,183.84h-25.62l-27.87-44.83-9.53,6.84v37.99h-22.56v-106.4h22.56v48.69l8.88-12.52,28.82-36.17h25.03l-37.12,47.09,37.41,59.31Z"/>
        <path class="cls-1" d="M575.43,183.84l-7.71-25.33h-38.79l-7.71,25.33h-24.31l37.55-106.83h27.58l37.7,106.83h-24.31ZM562.33,139.6c-7.13-22.95-11.15-35.93-12.04-38.94-.9-3.01-1.54-5.39-1.93-7.13-1.6,6.21-6.19,21.57-13.75,46.07h27.73Z"/>
        <path class="cls-1" d="M635.68,143.02v40.83h-22.56v-106.4h31c14.46,0,25.16,2.63,32.09,7.9,6.94,5.27,10.41,13.26,10.41,23.98,0,6.26-1.72,11.83-5.17,16.7-3.45,4.88-8.32,8.7-14.63,11.46,16.01,23.92,26.44,39.37,31.29,46.36h-25.03l-25.4-40.83h-12.01ZM635.68,124.68h7.28c7.13,0,12.4-1.19,15.79-3.57,3.4-2.38,5.09-6.11,5.09-11.21s-1.73-8.64-5.2-10.77c-3.47-2.13-8.84-3.2-16.12-3.2h-6.84v28.75Z"/>
        <path class="cls-1" d="M752.56,183.84h-22.56v-87.62h-28.89v-18.78h80.34v18.78h-28.89v87.62Z"/>
        <path class="cls-1" d="M862.96,183.84l-7.71-25.33h-38.79l-7.71,25.33h-24.31l37.55-106.83h27.58l37.7,106.83h-24.31ZM849.86,139.6c-7.13-22.95-11.15-35.93-12.04-38.94-.9-3.01-1.54-5.39-1.93-7.13-1.6,6.21-6.19,21.57-13.75,46.07h27.73Z"/>
        <path class="cls-1" d="M900.66,183.84v-106.4h22.56v87.77h43.16v18.63h-65.72Z"/>
      </g>
      <g>
        <path class="cls-3" d="M471.56,293.9l-9.79-25.01h-31.52l-9.68,25.01h-9.25l31.09-78.96h7.69l30.93,78.96h-9.47ZM458.92,260.66l-9.14-24.37c-1.18-3.08-2.4-6.87-3.66-11.35-.79,3.44-1.92,7.23-3.39,11.35l-9.25,24.37h25.44Z"/>
        <path class="cls-3" d="M541.7,238.18c0,7.96-2.72,14.08-8.15,18.37-5.43,4.29-13.21,6.43-23.32,6.43h-9.25v30.93h-9.14v-78.64h20.39c19.65,0,29.48,7.64,29.48,22.92ZM500.98,255.12h8.23c8.1,0,13.97-1.31,17.59-3.93s5.43-6.81,5.43-12.59c0-5.2-1.7-9.07-5.11-11.62-3.41-2.55-8.71-3.82-15.92-3.82h-10.22v31.95Z"/>
        <path class="cls-3" d="M607.6,293.9l-9.79-25.01h-31.52l-9.68,25.01h-9.25l31.09-78.96h7.69l30.93,78.96h-9.47ZM594.96,260.66l-9.14-24.37c-1.18-3.08-2.4-6.87-3.66-11.35-.79,3.44-1.92,7.23-3.39,11.35l-9.25,24.37h25.44Z"/>
        <path class="cls-3" d="M637.02,261.2v32.7h-9.14v-78.64h21.57c9.65,0,16.77,1.85,21.38,5.54,4.61,3.69,6.91,9.25,6.91,16.67,0,10.4-5.27,17.43-15.81,21.09l21.35,35.34h-10.81l-19.04-32.7h-16.41ZM637.02,253.35h12.53c6.46,0,11.19-1.28,14.2-3.85,3.01-2.56,4.52-6.41,4.52-11.54s-1.53-8.95-4.6-11.24c-3.07-2.29-7.99-3.44-14.77-3.44h-11.89v30.07Z"/>
        <path class="cls-3" d="M720.18,293.9h-9.14v-70.52h-24.91v-8.12h58.95v8.12h-24.9v70.52Z"/>
      </g>
    </g>
  </g>
</svg>